<svg width="22" height="23" viewBox="0 0 22 23" fill="none" xmlns="http://www.w3.org/2000/svg">
<path d="M19.5312 0.45752C20.8008 0.45752 21.875 1.53174 21.875 2.80127V19.9888C21.875 21.3071 20.8008 22.3325 19.5312 22.3325H2.34375C1.02539 22.3325 0 21.3071 0 19.9888V2.80127C0 1.53174 1.02539 0.45752 2.34375 0.45752H19.5312ZM18.7012 15.4966C18.7012 15.4478 18.7012 15.3989 18.75 15.3013C18.7012 15.0083 18.5547 14.7642 18.2617 14.6665L14.8438 13.2017C14.7949 13.1528 14.6973 13.1528 14.5996 13.104C14.3555 13.1528 14.1602 13.2505 14.0137 13.397L12.5 15.2524C10.1074 14.1294 8.20312 12.2251 7.08008 9.83252L8.93555 8.31885C9.08203 8.17236 9.17969 7.97705 9.22852 7.73291C9.17969 7.63525 9.17969 7.5376 9.13086 7.48877L7.66602 4.0708C7.56836 3.77783 7.32422 3.63135 7.03125 3.58252C6.93359 3.63135 6.88477 3.63135 6.83594 3.63135L3.66211 4.36377C3.36914 4.46143 3.125 4.70557 3.125 5.04736C3.125 12.9087 9.47266 19.2075 17.2852 19.2075C17.627 19.2075 17.9199 19.0122 17.9688 18.6704L18.7012 15.4966Z" fill="#009BDF"/>
</svg>
