<svg width="27" height="26" viewBox="0 0 27 26" fill="none" xmlns="http://www.w3.org/2000/svg">
<path d="M6.49727 12.2778L1.61445 7.34619C0.979688 6.76025 0.979688 5.78369 1.61445 5.14893L6.00898 0.803223C6.59492 0.168457 7.57148 0.168457 8.15742 0.803223L9.81758 2.41455L6.79023 5.44189C6.64375 5.58838 6.64375 5.83252 6.79023 5.979L7.37617 6.56494C7.425 6.61377 7.52266 6.6626 7.62031 6.6626C7.71797 6.6626 7.81563 6.61377 7.91328 6.56494L10.8918 3.5376L13.0891 5.68604L6.49727 12.2778ZM25.4426 6.56494L23.1965 8.81104L17.6789 3.29346L19.925 1.04736C20.8527 0.119629 22.3176 0.119629 23.2453 1.04736L25.4426 3.24463C26.3703 4.17236 26.3703 5.63721 25.4426 6.56494ZM16.6047 4.36768L22.1223 9.88525L7.62031 24.3872L2.34688 25.3149C1.66328 25.4614 1.02852 24.8267 1.175 24.1431L2.10273 18.8696L16.6047 4.36768ZM25.6867 18.3325C26.3215 18.9185 26.3215 19.895 25.6867 20.481L21.341 24.8755C20.7063 25.5103 19.7297 25.5103 19.1438 24.8755L14.2121 19.9927L20.8039 13.4009L22.9523 15.5981L19.925 18.5767C19.7785 18.7231 19.7785 18.9673 19.925 19.1138L20.5109 19.6997C20.6574 19.8462 20.9016 19.8462 21.048 19.6997L24.0754 16.6724L25.6867 18.3325Z" fill="#009BDF"/>
</svg>
