<svg width="22" height="23" viewBox="0 0 22 23" fill="none" xmlns="http://www.w3.org/2000/svg">
<path d="M19.5312 0.45752C20.8008 0.45752 21.875 1.53174 21.875 2.80127V19.9888C21.875 21.3071 20.8008 22.3325 19.5312 22.3325H2.34375C1.02539 22.3325 0 21.3071 0 19.9888V2.80127C0 1.53174 1.02539 0.45752 2.34375 0.45752H19.5312ZM8.69141 11.7368C9.17969 12.0786 10.2051 13.0063 10.9375 12.9575C11.6211 13.0063 12.6465 12.0786 13.1348 11.7368C17.5781 8.51416 17.5293 8.51416 18.75 7.58643V6.31689C18.75 5.68213 18.2129 5.14502 17.5781 5.14502H4.29688C3.61328 5.14502 3.125 5.68213 3.125 6.31689V7.58643C4.29688 8.51416 4.24805 8.51416 8.69141 11.7368ZM18.75 9.53955C18.0664 10.0767 17.0898 10.8091 14.0625 12.9575C13.4277 13.4458 12.207 14.5688 10.8887 14.52C9.61914 14.5688 8.44727 13.4946 7.76367 12.9575C4.73633 10.8091 3.75977 10.0767 3.125 9.53955V16.4731C3.125 17.1567 3.61328 17.645 4.29688 17.645H17.5781C18.2129 17.645 18.75 17.1567 18.75 16.4731V9.53955Z" fill="#009BDF"/>
</svg>
