<svg width="17" height="26" viewBox="0 0 17 26" fill="none" xmlns="http://www.w3.org/2000/svg">
<path d="M14.1652 0.125C15.4347 0.125 16.5089 1.19922 16.5089 2.46875V22.7812C16.5089 24.0996 15.4347 25.125 14.1652 25.125H3.22769C1.90933 25.125 0.88394 24.0996 0.88394 22.7812V2.46875C0.88394 1.19922 1.90933 0.125 3.22769 0.125H14.1652ZM8.69644 23.5625C9.52652 23.5625 10.2589 22.8789 10.2589 22C10.2589 21.1699 9.52652 20.4375 8.69644 20.4375C7.81753 20.4375 7.13394 21.1699 7.13394 22C7.13394 22.8789 7.81753 23.5625 8.69644 23.5625ZM14.1652 18.2891V3.05469C14.1652 2.76172 13.8722 2.46875 13.5793 2.46875H3.81363C3.47183 2.46875 3.22769 2.76172 3.22769 3.05469V18.2891C3.22769 18.6309 3.47183 18.875 3.81363 18.875H13.5793C13.8722 18.875 14.1652 18.6309 14.1652 18.2891Z" fill="#009BDF"/>
</svg>
