<svg width="24" height="25" viewBox="0 0 24 25" fill="none" xmlns="http://www.w3.org/2000/svg">
<g clip-path="url(#clip0_188_5564)">
<path d="M12 21.6922C16.9706 21.6922 21 17.6627 21 12.6922C21 7.72161 16.9706 3.69217 12 3.69217C7.02944 3.69217 3 7.72161 3 12.6922C3 17.6627 7.02944 21.6922 12 21.6922Z" stroke="black" stroke-width="2" stroke-linecap="round" stroke-linejoin="round"/>
<path d="M12 15.6922C14.0711 15.6922 15.75 14.0132 15.75 11.9422C15.75 9.8711 14.0711 8.19217 12 8.19217C9.92893 8.19217 8.25 9.8711 8.25 11.9422C8.25 14.0132 9.92893 15.6922 12 15.6922Z" stroke="black" stroke-width="2" stroke-linecap="round" stroke-linejoin="round"/>
<path d="M5.98125 19.3831C6.54554 18.2716 7.40658 17.3381 8.46894 16.686C9.5313 16.034 10.7535 15.6888 12 15.6888C13.2465 15.6888 14.4687 16.034 15.5311 16.686C16.5934 17.3381 17.4545 18.2716 18.0187 19.3831" stroke="black" stroke-width="2" stroke-linecap="round" stroke-linejoin="round"/>
</g>
<defs>
<clipPath id="clip0_188_5564">
<rect width="24" height="24" fill="white" transform="translate(0 0.692169)"/>
</clipPath>
</defs>
</svg>
