<svg width="20" height="20" viewBox="0 0 20 20" fill="none" xmlns="http://www.w3.org/2000/svg">
<path d="M13.9702 9.25C13.9702 10.0658 13.7282 10.8634 13.275 11.5417C12.8217 12.2201 12.1775 12.7488 11.4237 13.061C10.67 13.3732 9.84058 13.4549 9.04041 13.2957C8.24024 13.1366 7.50523 12.7437 6.92834 12.1668C6.35145 11.5899 5.95858 10.8549 5.79942 10.0547C5.64025 9.25458 5.72194 8.42518 6.03416 7.67143C6.34637 6.91769 6.87508 6.27345 7.55343 5.82019C8.23178 5.36693 9.02931 5.125 9.84516 5.125C10.9388 5.12624 11.9873 5.56124 12.7606 6.33455C13.5339 7.10787 13.9689 8.15636 13.9702 9.25ZM19.5952 10C19.5952 11.9284 19.0233 13.8134 17.952 15.4168C16.8806 17.0202 15.3579 18.2699 13.5763 19.0078C11.7947 19.7458 9.83434 19.9389 7.94303 19.5627C6.05171 19.1865 4.31443 18.2579 2.95087 16.8943C1.58731 15.5307 0.658708 13.7934 0.282502 11.9021C-0.0937042 10.0108 0.0993783 8.05042 0.837333 6.26884C1.57529 4.48726 2.82497 2.96451 4.42835 1.89317C6.03173 0.821828 7.91679 0.25 9.84516 0.25C12.4302 0.25273 14.9085 1.28084 16.7364 3.10872C18.5643 4.93661 19.5924 7.41498 19.5952 10ZM18.0952 10C18.094 8.88956 17.8688 7.79077 17.4332 6.76934C16.9976 5.7479 16.3605 4.82481 15.56 4.05525C14.7594 3.2857 13.8119 2.68549 12.7741 2.29053C11.7363 1.89556 10.6295 1.71395 9.51985 1.75656C5.10422 1.92719 1.58297 5.605 1.59516 10.0234C1.59939 12.0349 2.34124 13.9749 3.68016 15.4759C4.22543 14.6851 4.91807 14.0068 5.72016 13.4781C5.78854 13.433 5.86984 13.4114 5.95162 13.4169C6.03339 13.4223 6.11114 13.4543 6.17297 13.5081C7.1922 14.3897 8.49475 14.8749 9.84235 14.8749C11.1899 14.8749 12.4925 14.3897 13.5117 13.5081C13.5735 13.4543 13.6513 13.4223 13.7331 13.4169C13.8148 13.4114 13.8961 13.433 13.9645 13.4781C14.7676 14.0065 15.4612 14.6848 16.0073 15.4759C17.3529 13.9694 18.0962 12.0199 18.0952 10Z" fill="black"/>
</svg>
