<svg width="24" height="24" viewBox="0 0 24 24" fill="none" xmlns="http://www.w3.org/2000/svg">
<path d="M15.0224 10.3632C15.0224 10.8196 14.8887 11.2658 14.6382 11.6453C14.3876 12.0248 14.0316 12.3206 13.6149 12.4952C13.1983 12.6699 12.7399 12.7156 12.2976 12.6265C11.8553 12.5375 11.4491 12.3177 11.1302 11.995C10.8113 11.6722 10.5942 11.2611 10.5062 10.8134C10.4183 10.3658 10.4634 9.90176 10.636 9.48008C10.8085 9.05841 11.1008 8.698 11.4757 8.44442C11.8507 8.19085 12.2915 8.05551 12.7424 8.05551C13.3471 8.05551 13.927 8.29864 14.3546 8.73141C14.7822 9.16419 15.0224 9.75116 15.0224 10.3632ZM21.1024 3.44012V20.3632C21.1024 20.7712 20.9423 21.1625 20.6572 21.4511C20.3722 21.7396 19.9855 21.9017 19.5824 21.9017H5.90242C5.49929 21.9017 5.11267 21.7396 4.82761 21.4511C4.54256 21.1625 4.38242 20.7712 4.38242 20.3632V18.0555H2.86242C2.66085 18.0555 2.46754 17.9745 2.32502 17.8302C2.18249 17.6859 2.10242 17.4903 2.10242 17.2863C2.10242 17.0823 2.18249 16.8866 2.32502 16.7423C2.46754 16.5981 2.66085 16.517 2.86242 16.517H4.38242V12.6709H2.86242C2.66085 12.6709 2.46754 12.5898 2.32502 12.4456C2.18249 12.3013 2.10242 12.1057 2.10242 11.9017C2.10242 11.6976 2.18249 11.502 2.32502 11.3577C2.46754 11.2135 2.66085 11.1324 2.86242 11.1324H4.38242V7.28628H2.86242C2.66085 7.28628 2.46754 7.20523 2.32502 7.06097C2.18249 6.91671 2.10242 6.72106 2.10242 6.51704C2.10242 6.31303 2.18249 6.11738 2.32502 5.97312C2.46754 5.82886 2.66085 5.74781 2.86242 5.74781H4.38242V3.44012C4.38242 3.0321 4.54256 2.64078 4.82761 2.35226C5.11267 2.06375 5.49929 1.90166 5.90242 1.90166H19.5824C19.9855 1.90166 20.3722 2.06375 20.6572 2.35226C20.9423 2.64078 21.1024 3.0321 21.1024 3.44012ZM17.9104 15.2863C17.2375 14.3731 16.34 13.654 15.3074 13.2007C15.8733 12.6778 16.2698 11.9939 16.4448 11.2388C16.6198 10.4837 16.5652 9.69268 16.2881 8.96956C16.0111 8.24645 15.5245 7.62502 14.8922 7.18683C14.2599 6.74863 13.5116 6.51415 12.7453 6.51415C11.979 6.51415 11.2306 6.74863 10.5983 7.18683C9.96607 7.62502 9.47947 8.24645 9.20239 8.96956C8.92531 9.69268 8.87069 10.4837 9.04571 11.2388C9.22073 11.9939 9.61721 12.6778 10.1831 13.2007C9.14841 13.6532 8.24896 14.3723 7.57442 15.2863C7.51453 15.3671 7.47096 15.459 7.44619 15.5569C7.42142 15.6548 7.41594 15.7566 7.43006 15.8566C7.44417 15.9566 7.47761 16.0528 7.52846 16.1397C7.57931 16.2267 7.64657 16.3026 7.72642 16.3632C7.80626 16.4238 7.89712 16.4679 7.9938 16.493C8.09048 16.518 8.1911 16.5236 8.2899 16.5093C8.3887 16.495 8.48375 16.4612 8.56963 16.4097C8.65551 16.3582 8.73053 16.2902 8.79042 16.2094C9.25056 15.5884 9.84724 15.0844 10.5332 14.7372C11.2191 14.3901 11.9755 14.2094 12.7424 14.2094C13.5093 14.2094 14.2657 14.3901 14.9517 14.7372C15.6376 15.0844 16.2343 15.5884 16.6944 16.2094C16.8154 16.3726 16.9954 16.4805 17.1949 16.5093C17.3945 16.5382 17.5972 16.4856 17.7584 16.3632C17.9197 16.2408 18.0263 16.0586 18.0548 15.8566C18.0833 15.6546 18.0314 15.4495 17.9104 15.2863Z" fill="black"/>
</svg>
