<svg width="14" height="14" viewBox="0 0 14 14" fill="none" xmlns="http://www.w3.org/2000/svg">
<path d="M8.63593 12.4783V9.3479C8.63593 9.20953 8.57847 9.07683 8.47618 8.97898C8.37389 8.88114 8.23516 8.82617 8.09051 8.82617H5.90881C5.76416 8.82617 5.62543 8.88114 5.52314 8.97898C5.42085 9.07683 5.36339 9.20953 5.36339 9.3479V12.4783C5.36339 12.6166 5.30592 12.7493 5.20364 12.8472C5.10135 12.945 4.96262 13 4.81796 13H1.54542C1.40077 13 1.26204 12.945 1.15975 12.8472C1.05746 12.7493 1 12.6166 1 12.4783V6.4484C1.00001 6.37569 1.0159 6.30379 1.04666 6.2373C1.07742 6.17081 1.12237 6.11121 1.17863 6.06232L6.63286 1.1359C6.73329 1.04846 6.8642 1 7 1C7.1358 1 7.26671 1.04846 7.36714 1.1359L12.8214 6.06232C12.8776 6.11121 12.9226 6.17081 12.9533 6.2373C12.9841 6.30379 13 6.37569 13 6.4484V12.4783C13 12.6166 12.9425 12.7493 12.8402 12.8472C12.738 12.945 12.5992 13 12.4546 13H9.18135C9.0367 13 8.89797 12.945 8.79568 12.8472C8.69339 12.7493 8.63593 12.6166 8.63593 12.4783Z" stroke="black" stroke-width="2" stroke-linecap="round" stroke-linejoin="round"/>
</svg>
