<svg width="12" height="12" viewBox="0 0 12 12" fill="none" xmlns="http://www.w3.org/2000/svg">
<path d="M12 5.49245V11.0399C12 11.2945 11.8946 11.5387 11.7071 11.7188C11.5196 11.8988 11.2652 12 11 12H8.49999C8.23477 12 7.98042 11.8988 7.79288 11.7188C7.60535 11.5387 7.49999 11.2945 7.49999 11.0399V8.63971C7.49999 8.5124 7.44731 8.3903 7.35355 8.30027C7.25978 8.21025 7.1326 8.15967 6.99999 8.15967H4.99999C4.86739 8.15967 4.74021 8.21025 4.64644 8.30027C4.55267 8.3903 4.49999 8.5124 4.49999 8.63971V11.0399C4.49999 11.2945 4.39464 11.5387 4.2071 11.7188C4.01957 11.8988 3.76521 12 3.5 12H0.999999C0.734783 12 0.480429 11.8988 0.292893 11.7188C0.105357 11.5387 1.15549e-08 11.2945 1.15549e-08 11.0399V5.49245C-2.10268e-05 5.35957 0.028687 5.22814 0.0843071 5.10646C0.139927 4.98479 0.221248 4.87553 0.323125 4.78559L5.32312 0.256401L5.32999 0.249801C5.51408 0.0890671 5.75397 0 6.00281 0C6.25164 0 6.49153 0.0890671 6.67562 0.249801C6.67775 0.252149 6.68005 0.254354 6.68249 0.256401L11.6825 4.78559C11.7833 4.876 11.8636 4.98548 11.9183 5.10713C11.9729 5.22878 12.0007 5.35997 12 5.49245Z" fill="black"/>
</svg>
