<svg width="25" height="25" viewBox="0 0 25 25" fill="none" xmlns="http://www.w3.org/2000/svg">
<g clip-path="url(#clip0_188_5610)">
<path d="M20.3486 3.38432H18.0986V2.63432C18.0986 2.43541 18.0196 2.24465 17.8789 2.10399C17.7382 1.96334 17.5475 1.88432 17.3486 1.88432C17.1497 1.88432 16.9589 1.96334 16.8182 2.10399C16.6776 2.24465 16.5986 2.43541 16.5986 2.63432V3.38432H9.09857V2.63432C9.09857 2.43541 9.01955 2.24465 8.8789 2.10399C8.73825 1.96334 8.54748 1.88432 8.34857 1.88432C8.14966 1.88432 7.95889 1.96334 7.81824 2.10399C7.67759 2.24465 7.59857 2.43541 7.59857 2.63432V3.38432H5.34857C4.95075 3.38432 4.56922 3.54236 4.28791 3.82366C4.00661 4.10497 3.84857 4.4865 3.84857 4.88432V19.8843C3.84857 20.2821 4.00661 20.6637 4.28791 20.945C4.56922 21.2263 4.95075 21.3843 5.34857 21.3843H20.3486C20.7464 21.3843 21.1279 21.2263 21.4092 20.945C21.6905 20.6637 21.8486 20.2821 21.8486 19.8843V4.88432C21.8486 4.4865 21.6905 4.10497 21.4092 3.82366C21.1279 3.54236 20.7464 3.38432 20.3486 3.38432ZM16.7542 12.9149L12.2542 17.4149C12.1845 17.4847 12.1018 17.54 12.0108 17.5777C11.9197 17.6155 11.8221 17.6349 11.7236 17.6349C11.625 17.6349 11.5274 17.6155 11.4364 17.5777C11.3453 17.54 11.2626 17.4847 11.1929 17.4149L8.94295 15.1649C8.80222 15.0242 8.72316 14.8333 8.72316 14.6343C8.72316 14.4353 8.80222 14.2444 8.94295 14.1037C9.08368 13.963 9.27455 13.8839 9.47357 13.8839C9.67259 13.8839 9.86347 13.963 10.0042 14.1037L11.7236 15.824L15.6929 11.8537C15.7626 11.784 15.8454 11.7287 15.9364 11.691C16.0274 11.6533 16.125 11.6339 16.2236 11.6339C16.3221 11.6339 16.4197 11.6533 16.5107 11.691C16.6018 11.7287 16.6845 11.784 16.7542 11.8537C16.8239 11.9234 16.8792 12.0061 16.9169 12.0972C16.9546 12.1882 16.974 12.2858 16.974 12.3843C16.974 12.4829 16.9546 12.5805 16.9169 12.6715C16.8792 12.7625 16.8239 12.8453 16.7542 12.9149ZM5.34857 7.88432V4.88432H7.59857V5.63432C7.59857 5.83324 7.67759 6.024 7.81824 6.16465C7.95889 6.30531 8.14966 6.38432 8.34857 6.38432C8.54748 6.38432 8.73825 6.30531 8.8789 6.16465C9.01955 6.024 9.09857 5.83324 9.09857 5.63432V4.88432H16.5986V5.63432C16.5986 5.83324 16.6776 6.024 16.8182 6.16465C16.9589 6.30531 17.1497 6.38432 17.3486 6.38432C17.5475 6.38432 17.7382 6.30531 17.8789 6.16465C18.0196 6.024 18.0986 5.83324 18.0986 5.63432V4.88432H20.3486V7.88432H5.34857Z" fill="black"/>
</g>
<defs>
<clipPath id="clip0_188_5610">
<rect width="24" height="24" fill="white" transform="translate(0.848572 0.384323)"/>
</clipPath>
</defs>
</svg>
