<svg width="22" height="17" viewBox="0 0 22 17" fill="none" xmlns="http://www.w3.org/2000/svg">
<path d="M20.4908 11.7956H19.7408V2.79558C19.7408 2.19884 19.5038 1.62654 19.0818 1.20459C18.6599 0.782631 18.0876 0.545578 17.4908 0.545578H3.99084C3.39411 0.545578 2.82181 0.782631 2.39985 1.20459C1.9779 1.62654 1.74084 2.19884 1.74084 2.79558V11.7956H0.990845C0.791932 11.7956 0.601167 11.8746 0.460515 12.0152C0.319862 12.1559 0.240845 12.3467 0.240845 12.5456V14.0456C0.240845 14.6423 0.477898 15.2146 0.899855 15.6366C1.32181 16.0585 1.89411 16.2956 2.49084 16.2956H18.9908C19.5876 16.2956 20.1599 16.0585 20.5818 15.6366C21.0038 15.2146 21.2408 14.6423 21.2408 14.0456V12.5456C21.2408 12.3467 21.1618 12.1559 21.0212 12.0152C20.8805 11.8746 20.6898 11.7956 20.4908 11.7956ZM9.24084 2.79558H12.2408C12.4398 2.79558 12.6305 2.8746 12.7712 3.01525C12.9118 3.1559 12.9908 3.34667 12.9908 3.54558C12.9908 3.74449 12.9118 3.93526 12.7712 4.07591C12.6305 4.21656 12.4398 4.29558 12.2408 4.29558H9.24084C9.04193 4.29558 8.85117 4.21656 8.71052 4.07591C8.56986 3.93526 8.49084 3.74449 8.49084 3.54558C8.49084 3.34667 8.56986 3.1559 8.71052 3.01525C8.85117 2.8746 9.04193 2.79558 9.24084 2.79558ZM19.7408 14.0456C19.7408 14.2445 19.6618 14.4353 19.5212 14.5759C19.3805 14.7166 19.1898 14.7956 18.9908 14.7956H2.49084C2.29193 14.7956 2.10117 14.7166 1.96051 14.5759C1.81986 14.4353 1.74084 14.2445 1.74084 14.0456V13.2956H19.7408V14.0456Z" fill="black"/>
</svg>
